<?xml version="1.0" encoding="UTF-8"?>
<svg id="Layer_1" data-name="Layer 1" xmlns="http://www.w3.org/2000/svg" viewBox="0 0 1133.86 1150.39">
  <defs>
    <style>
      .cls-1 {
        fill: #fff;
        opacity: 0;
      }

      .cls-2 {
        fill: #fffbe9;
        stroke: #231f20;
        stroke-miterlimit: 10;
        stroke-width: 40px;
      }

      .cls-3 {
        fill: #ed1c24;
      }

      .cls-4 {
        fill: #231f20;
      }
    </style>
  </defs>
  <rect class="cls-1" width="1133.86" height="1133.86"/>
  <g>
    <path class="cls-2" d="m716.07,1067.16h-398.38c-40.53,0-72.8-41.81-72.8-93.38V266.87c0-51.57,32.27-100.57,72.8-109.59l398.38-88.68c49.85-11.1,91.09,27.39,91.09,86.18v805.92c0,58.8-41.24,106.46-91.09,106.46Z"/>
    <rect class="cls-2" x="244.89" y="173.49" width="644.07" height="893.67" rx="93.38" ry="93.38"/>
    <path class="cls-4" d="m574.46,432.52v375.62h-52.4l-187.81-356.95v166.02c0,33.9,2.59,62.78,7.78,86.64,5.19,23.87,11.07,43.58,17.64,59.14,7.26,18.34,15.73,33.38,25.42,45.14h-60.7v-375.62h52.4l187.81,356.43v-165.5c0-33.54-2.68-62.34-8.04-86.38-5.37-24.04-11.15-43.84-17.38-59.4-7.61-18.33-16.08-33.37-25.42-45.14h60.7Z"/>
    <path class="cls-4" d="m596.24,808.14v-375.62h46.69v365.76h14.01c19.02,0,37.61-2.25,55.77-6.74,18.16-4.49,34.5-9.51,49.03-15.05,16.6-6.23,32.51-13.66,47.73-22.31v53.96h-213.23Z"/>
    <path class="cls-3" d="m694.05,153.49c-.11,101.48-.23,202.96-.34,304.44,19.61-26.03,39.22-52.05,58.83-78.08,17.63,24.86,35.25,49.73,52.88,74.59-.52-100.29-1.05-200.58-1.57-300.87-36.6-.02-73.2-.05-109.8-.07Z"/>
  </g>
</svg>