<?xml version="1.0" standalone="no"?>
<!DOCTYPE svg PUBLIC "-//W3C//DTD SVG 20010904//EN"
 "http://www.w3.org/TR/2001/REC-SVG-20010904/DTD/svg10.dtd">
<svg version="1.0" xmlns="http://www.w3.org/2000/svg"
 width="1150.000000pt" height="1150.000000pt" viewBox="0 0 1150.000000 1150.000000"
 preserveAspectRatio="xMidYMid meet">
<metadata>
Created by potrace 1.14, written by Peter Selinger 2001-2017
</metadata>
<g transform="translate(0.000000,1150.000000) scale(0.100000,-0.100000)"
fill="#000000" stroke="none">
<path d="M7387 11034 c-1 -1 -33 -4 -72 -8 -78 -7 -75 -7 -335 -65 -102 -23
-194 -44 -205 -46 -77 -17 -290 -64 -315 -70 -34 -8 -347 -77 -365 -81 -11 -2
-58 -13 -105 -24 -87 -20 -615 -138 -660 -146 -14 -3 -54 -12 -90 -21 -36 -8
-74 -17 -85 -19 -25 -5 -45 -9 -425 -94 -264 -59 -592 -132 -650 -145 -8 -2
-107 -24 -220 -49 -113 -25 -214 -48 -225 -50 -174 -36 -457 -103 -515 -122
-280 -93 -520 -338 -678 -694 -26 -60 -66 -195 -89 -300 -17 -81 -18 -251 -18
-3800 0 -3567 1 -3718 18 -3798 41 -186 97 -321 189 -459 146 -220 369 -368
603 -403 77 -11 4964 -12 5025 0 25 4 64 11 88 14 23 3 83 19 132 35 179 61
313 143 445 276 169 168 273 366 319 605 22 111 22 7321 1 7449 -68 407 -368
761 -752 886 l-51 17 -1 59 c-2 506 -310 933 -741 1028 -78 17 -214 32 -223
25z"/>
</g>
</svg>
